{
  "accessors": [
    {
      "bufferView": 1,
      "componentType": 5126,
      "count": 14,
      "max": [
        3.0745899677276611,
        2.0316898822784424,
        3.2602028846740723
      ],
      "min": [
        3.0477101802825928,
        1.9166839122772217,
        3.1250588893890381
      ],
      "type": "VEC3"
    },
    {
      "bufferView": 1,
      "byteOffset": 168,
      "componentType": 5126,
      "count": 14,
      "max": [
        0.99691379070281982,
        0.2815188467502594,
        0.061846986413002014
      ],
      "min": [
        -0.99691379070281982,
        -0.14457292854785919,
        -0.19627390801906586
      ],
      "type": "VEC3"
    },
    {
      "bufferView": 2,
      "componentType": 5126,
      "count": 14,
      "max": [
        0.21234579384326935,
        0.67061775922775269,
        0.99883586168289185,
        1
      ],
      "min": [
        -0.24188753962516785,
        -0.26904407143592834,
        -0.95891761779785156,
        -1
      ],
      "type": "VEC4"
    },
    {
      "bufferView": 0,
      "componentType": 5125,
      "count": 30,
      "max": [
        13
      ],
      "min": [
        0
      ],
      "type": "SCALAR"
    },
    {
      "bufferView": 1,
      "byteOffset": 336,
      "componentType": 5126,
      "count": 2493,
      "max": [
        4.5898838043212891,
        2.1539998054504395,
        3.5457499027252197
      ],
      "min": [
        1.5514650344848633,
        0.096299886703491211,
        0.7632899284362793
      ],
      "type": "VEC3"
    },
    {
      "bufferView": 1,
      "byteOffset": 30252,
      "componentType": 5126,
      "count": 2493,
      "max": [
        0.99837565422058105,
        0.99938923120498657,
        0.99970322847366333
      ],
      "min": [
        -0.99881249666213989,
        -0.99966514110565186,
        -0.9999879002571106
      ],
      "type": "VEC3"
    },
    {
      "bufferView": 0,
      "byteOffset": 120,
      "componentType": 5125,
      "count": 14304,
      "max": [
        2492
      ],
      "min": [
        0
      ],
      "type": "SCALAR"
    },
    {
      "bufferView": 1,
      "byteOffset": 60168,
      "componentType": 5126,
      "count": 2136,
      "max": [
        3.758620023727417,
        1.3265999555587769,
        2.8138799667358398
      ],
      "min": [
        1.9986100196838379,
        0.18200993537902832,
        0.68323993682861328
      ],
      "type": "VEC3"
    },
    {
      "bufferView": 1,
      "byteOffset": 85800,
      "componentType": 5126,
      "count": 2136,
      "max": [
        0.99961334466934204,
        0.99512010812759399,
        0.99963289499282837
      ],
      "min": [
        -0.9996107816696167,
        -0.99837309122085571,
        -0.99985897541046143
      ],
      "type": "VEC3"
    },
    {
      "bufferView": 0,
      "byteOffset": 57336,
      "componentType": 5125,
      "count": 12606,
      "max": [
        2135
      ],
      "min": [
        0
      ],
      "type": "SCALAR"
    },
    {
      "bufferView": 1,
      "byteOffset": 111432,
      "componentType": 5126,
      "count": 2199,
      "max": [
        4.058840274810791,
        1.076779842376709,
        2.8496699333190918
      ],
      "min": [
        2.0536401271820068,
        0.17543983459472656,
        0.83523988723754883
      ],
      "type": "VEC3"
    },
    {
      "bufferView": 1,
      "byteOffset": 137820,
      "componentType": 5126,
      "count": 2199,
      "max": [
        0.99946486949920654,
        0.99983173608779907,
        0.99998146295547485
      ],
      "min": [
        -0.99950098991394043,
        -0.99978011846542358,
        -0.9993090033531189
      ],
      "type": "VEC3"
    },
    {
      "bufferView": 0,
      "byteOffset": 107760,
      "componentType": 5125,
      "count": 13056,
      "max": [
        2198
      ],
      "min": [
        0
      ],
      "type": "SCALAR"
    },
    {
      "bufferView": 1,
      "byteOffset": 164208,
      "componentType": 5126,
      "count": 2394,
      "max": [
        4.2032003402709961,
        1.4685399532318115,
        2.8226699829101562
      ],
      "min": [
        2.2071900367736816,
        0.48446989059448242,
        0.8216400146484375
      ],
      "type": "VEC3"
    },
    {
      "bufferView": 1,
      "byteOffset": 192936,
      "componentType": 5126,
      "count": 2394,
      "max": [
        0.99968212842941284,
        0.99903035163879395,
        0.99949377775192261
      ],
      "min": [
        -0.99913185834884644,
        -0.99986565113067627,
        -0.99846476316452026
      ],
      "type": "VEC3"
    },
    {
      "bufferView": 0,
      "byteOffset": 159984,
      "componentType": 5125,
      "count": 14184,
      "max": [
        2393
      ],
      "min": [
        0
      ],
      "type": "SCALAR"
    },
    {
      "bufferView": 1,
      "byteOffset": 221664,
      "componentType": 5126,
      "count": 2128,
      "max": [
        4.4704999923706055,
        2.2976698875427246,
        2.0313799381256104
      ],
      "min": [
        1.6584600210189819,
        0.95925998687744141,
        0.82205986976623535
      ],
      "type": "VEC3"
    },
    {
      "bufferView": 1,
      "byteOffset": 247200,
      "componentType": 5126,
      "count": 2128,
      "max": [
        0.99933326244354248,
        0.99999523162841797,
        0.99998575448989868
      ],
      "min": [
        -0.99982374906539917,
        -0.99981421232223511,
        -0.98929411172866821
      ],
      "type": "VEC3"
    },
    {
      "bufferView": 0,
      "byteOffset": 216720,
      "componentType": 5125,
      "count": 12468,
      "max": [
        2127
      ],
      "min": [
        0
      ],
      "type": "SCALAR"
    },
    {
      "bufferView": 1,
      "byteOffset": 272736,
      "componentType": 5126,
      "count": 2359,
      "max": [
        4.2829103469848633,
        2.0615200996398926,
        2.8167400360107422
      ],
      "min": [
        1.8852100372314453,
        1.2560299634933472,
        0.9964599609375
      ],
      "type": "VEC3"
    },
    {
      "bufferView": 1,
      "byteOffset": 301044,
      "componentType": 5126,
      "count": 2359,
      "max": [
        0.99964666366577148,
        0.99983865022659302,
        0.99963486194610596
      ],
      "min": [
        -0.99709290266036987,
        -0.99941176176071167,
        -0.99989813566207886
      ],
      "type": "VEC3"
    },
    {
      "bufferView": 0,
      "byteOffset": 266592,
      "componentType": 5125,
      "count": 13698,
      "max": [
        2358
      ],
      "min": [
        0
      ],
      "type": "SCALAR"
    },
    {
      "bufferView": 1,
      "byteOffset": 329352,
      "componentType": 5126,
      "count": 1935,
      "max": [
        4.2369098663330078,
        2.3572099208831787,
        2.8266599178314209
      ],
      "min": [
        1.9038901329040527,
        1.6321799755096436,
        1.9606999158859253
      ],
      "type": "VEC3"
    },
    {
      "bufferView": 1,
      "byteOffset": 352572,
      "componentType": 5126,
      "count": 1935,
      "max": [
        0.99605590105056763,
        0.99898749589920044,
        0.99886375665664673
      ],
      "min": [
        -0.99993836879730225,
        -0.99994122982025146,
        -0.99994021654129028
      ],
      "type": "VEC3"
    },
    {
      "bufferView": 0,
      "byteOffset": 321384,
      "componentType": 5125,
      "count": 11256,
      "max": [
        1934
      ],
      "min": [
        0
      ],
      "type": "SCALAR"
    },
    {
      "bufferView": 1,
      "byteOffset": 375792,
      "componentType": 5126,
      "count": 1034,
      "max": [
        5.3921003341674805,
        3.4153599739074707,
        3.6492099761962891
      ],
      "min": [
        0.73020005226135254,
        0.26613998413085938,
        0
      ],
      "type": "VEC3"
    },
    {
      "bufferView": 1,
      "byteOffset": 388200,
      "componentType": 5126,
      "count": 1034,
      "max": [
        0.99896252155303955,
        0.99716377258300781,
        0.98898589611053467
      ],
      "min": [
        -0.99896258115768433,
        -0.99938309192657471,
        -0.94477838277816772
      ],
      "type": "VEC3"
    },
    {
      "bufferView": 0,
      "byteOffset": 366408,
      "componentType": 5125,
      "count": 5724,
      "max": [
        1033
      ],
      "min": [
        0
      ],
      "type": "SCALAR"
    },
    {
      "bufferView": 1,
      "byteOffset": 400608,
      "componentType": 5126,
      "count": 12221,
      "max": [
        6.0270099639892578,
        7.4797401428222656,
        8.7438297271728516
      ],
      "min": [
        0,
        0,
        1.970579981803894
      ],
      "type": "VEC3"
    },
    {
      "bufferView": 1,
      "byteOffset": 547260,
      "componentType": 5126,
      "count": 12221,
      "max": [
        0.99994963407516479,
        0.99988234043121338,
        0.99988210201263428
      ],
      "min": [
        -0.99992537498474121,
        -0.99999600648880005,
        -0.99997854232788086
      ],
      "type": "VEC3"
    },
    {
      "bufferView": 0,
      "byteOffset": 389304,
      "componentType": 5125,
      "count": 70926,
      "max": [
        12220
      ],
      "min": [
        0
      ],
      "type": "SCALAR"
    }
  ],
  "asset": {
    "extras": {
      "author": "Samcraft (https://sketchfab.com/scote)",
      "license": "CC-BY-4.0 (http://creativecommons.org/licenses/by/4.0/)",
      "source": "https://sketchfab.com/models/520071e4cd80477996ab84d9a75c86bc",
      "title": "Skull basemesh"
    },
    "generator": "Sketchfab-3.18.5",
    "version": "2.0"
  },
  "bufferViews": [
    {
      "buffer": 0,
      "byteLength": 673008,
      "byteOffset": 0,
      "name": "floatBufferViews",
      "target": 34963
    },
    {
      "buffer": 0,
      "byteLength": 693912,
      "byteOffset": 673008,
      "byteStride": 12,
      "name": "floatBufferViews",
      "target": 34962
    },
    {
      "buffer": 0,
      "byteLength": 224,
      "byteOffset": 1366920,
      "byteStride": 16,
      "name": "floatBufferViews",
      "target": 34962
    }
  ],
  "buffers": [
    {
      "byteLength": 1367144,
      "uri": "scene.bin"
    }
  ],
  "materials": [
    {
      "doubleSided": true,
      "emissiveFactor": [
        0,
        0,
        0
      ],
      "name": "lambert2SG",
      "pbrMetallicRoughness": {
        "baseColorFactor": [
          1,
          1,
          1,
          1
        ],
        "metallicFactor": 0,
        "roughnessFactor": 0.59999999999999998
      }
    }
  ],
  "meshes": [
    {
      "primitives": [
        {
          "attributes": {
            "NORMAL": 1,
            "POSITION": 0,
            "TANGENT": 2
          },
          "indices": 3,
          "material": 0,
          "mode": 4
        }
      ]
    },
    {
      "primitives": [
        {
          "attributes": {
            "NORMAL": 5,
            "POSITION": 4
          },
          "indices": 6,
          "material": 0,
          "mode": 4
        }
      ]
    },
    {
      "primitives": [
        {
          "attributes": {
            "NORMAL": 8,
            "POSITION": 7
          },
          "indices": 9,
          "material": 0,
          "mode": 4
        }
      ]
    },
    {
      "primitives": [
        {
          "attributes": {
            "NORMAL": 11,
            "POSITION": 10
          },
          "indices": 12,
          "material": 0,
          "mode": 4
        }
      ]
    },
    {
      "primitives": [
        {
          "attributes": {
            "NORMAL": 14,
            "POSITION": 13
          },
          "indices": 15,
          "material": 0,
          "mode": 4
        }
      ]
    },
    {
      "primitives": [
        {
          "attributes": {
            "NORMAL": 17,
            "POSITION": 16
          },
          "indices": 18,
          "material": 0,
          "mode": 4
        }
      ]
    },
    {
      "primitives": [
        {
          "attributes": {
            "NORMAL": 20,
            "POSITION": 19
          },
          "indices": 21,
          "material": 0,
          "mode": 4
        }
      ]
    },
    {
      "primitives": [
        {
          "attributes": {
            "NORMAL": 23,
            "POSITION": 22
          },
          "indices": 24,
          "material": 0,
          "mode": 4
        }
      ]
    },
    {
      "primitives": [
        {
          "attributes": {
            "NORMAL": 26,
            "POSITION": 25
          },
          "indices": 27,
          "material": 0,
          "mode": 4
        }
      ]
    },
    {
      "primitives": [
        {
          "attributes": {
            "NORMAL": 29,
            "POSITION": 28
          },
          "indices": 30,
          "material": 0,
          "mode": 4
        }
      ]
    }
  ],
  "nodes": [
    {
      "children": [
        1
      ],
      "name": "RootNode (gltf orientation matrix)",
      "rotation": [
        -0.70710678118654746,
        -0,
        -0,
        0.70710678118654757
      ]
    },
    {
      "children": [
        2
      ],
      "name": "RootNode (model correction matrix)"
    },
    {
      "children": [
        3
      ],
      "matrix": [
        1,
        0,
        0,
        0,
        0,
        1,
        0,
        0,
        0,
        0,
        1,
        0,
        -3.061150074005127,
        -3.2237899303436279,
        -3.2622699737548828,
        1
      ],
      "name": "skull-sketchfab02.obj.cleaner.gles"
    },
    {
      "children": [
        4,
        5,
        6,
        7,
        8,
        9,
        10,
        11,
        12,
        13
      ],
      "name": ""
    },
    {
      "mesh": 0,
      "name": ""
    },
    {
      "mesh": 1,
      "name": ""
    },
    {
      "mesh": 2,
      "name": ""
    },
    {
      "mesh": 3,
      "name": ""
    },
    {
      "mesh": 4,
      "name": ""
    },
    {
      "mesh": 5,
      "name": ""
    },
    {
      "mesh": 6,
      "name": ""
    },
    {
      "mesh": 7,
      "name": ""
    },
    {
      "mesh": 8,
      "name": ""
    },
    {
      "mesh": 9,
      "name": ""
    }
  ],
  "scene": 0,
  "scenes": [
    {
      "name": "OSG_Scene",
      "nodes": [
        0
      ]
    }
  ]
}

